<mxfile host="app.diagrams.net" modified="2022-04-05T11:21:28.130Z" agent="5.0 (Windows NT 10.0; Win64; x64) AppleWebKit/537.36 (KHTML, like Gecko) Chrome/100.0.4896.60 Safari/537.36" etag="2Ds4FrbcQJbBUhBSI2xT" version="17.4.0" type="github">
  <diagram id="4XaTZUM-zadagMEQnAjJ" name="Page-1">
    <mxGraphModel dx="1422" dy="794" grid="1" gridSize="10" guides="1" tooltips="1" connect="1" arrows="1" fold="1" page="1" pageScale="1" pageWidth="850" pageHeight="1100" math="0" shadow="0">
      <root>
        <mxCell id="0" />
        <mxCell id="1" parent="0" />
        <mxCell id="h4pa_BGokdYU-xwUs7ra-57" value="" style="rounded=1;whiteSpace=wrap;html=1;shadow=0;sketch=0;strokeColor=#A5A5A5;strokeWidth=1;fillColor=none;dashed=1;" parent="1" vertex="1">
          <mxGeometry x="180.47" y="673.5" width="553" height="166.5" as="geometry" />
        </mxCell>
        <mxCell id="h4pa_BGokdYU-xwUs7ra-58" value="" style="rounded=1;whiteSpace=wrap;html=1;shadow=0;sketch=0;strokeColor=#666666;strokeWidth=1;fillColor=#e0efd9;fontColor=#333333;" parent="1" vertex="1">
          <mxGeometry x="223.22" y="480" width="440" height="184" as="geometry" />
        </mxCell>
        <mxCell id="mScDv55YoH_qN3Cxl2DJ-2" value="&lt;b&gt;&lt;font style=&quot;font-size: 14px&quot;&gt;毫米波雷达信号&lt;/font&gt;&lt;br&gt;&lt;/b&gt;" style="text;html=1;resizable=0;autosize=1;align=center;verticalAlign=middle;points=[];fillColor=none;strokeColor=none;rounded=0;" parent="1" vertex="1">
          <mxGeometry x="261.44000000000005" y="510" width="110" height="20" as="geometry" />
        </mxCell>
        <mxCell id="mScDv55YoH_qN3Cxl2DJ-13" value="" style="endArrow=openAsync;html=1;fillColor=#1ba1e2;strokeColor=#a5a5a5;entryX=0.5;entryY=1;entryDx=0;entryDy=0;exitX=1;exitY=0.5;exitDx=0;exitDy=0;strokeWidth=2;rounded=0;endFill=0;endSize=4;startSize=4;shadow=0;" parent="1" source="h4pa_BGokdYU-xwUs7ra-1" target="h4pa_BGokdYU-xwUs7ra-3" edge="1">
          <mxGeometry width="50" height="50" relative="1" as="geometry">
            <mxPoint x="536.69" y="506.5" as="sourcePoint" />
            <mxPoint x="446.69000000000005" y="446.5" as="targetPoint" />
          </mxGeometry>
        </mxCell>
        <mxCell id="h4pa_BGokdYU-xwUs7ra-1" value="" style="shape=image;verticalLabelPosition=bottom;labelBackgroundColor=default;verticalAlign=top;aspect=fixed;imageAspect=0;image=data:image/png,iVBORw0KGgoAAAANSUhEUgAAANsAAADRCAYAAABFGMcmAAAQdElEQVR4nO3dyZMcV0LH8e97L5fKWrp61S5hezzYM2CwmSAIBg6cIDjwN8yfxl/AhTtciOBAMDDgYfB4kMcaa21J3eqtlsy3cOi2xrLHdnfLeq2u/n0c9qHl6Moq5TczK/PlS5NSSojIK2fPegFELgrFJpKJYhPJRLGJZKLYRDJRbCKZKDaRTBSbSCaKTSQTxSaSiWITyUSxiWSi2EQyUWwimSg2kUwUm0gmik0kE8UmkoliE8lEsYlkothEMlFsIpkoNpFMFJtIJopNJBPFJpKJYhPJRLGJZKLYRDJRbCKZKDaRTBSbSCaKTSQTxSaSiWITyUSxiWSi2EQyUWwimSg2kUwUm0gmik0kE8UmkoliE8lEsYlkUpz1AsjrxwdPShFnC6zV9vi7otjkBT54JmHKgZ8SSfSKmmHRp7bVWS/auafY5AU+JXb8Ab+e3GMeW6721rnVXFVs3wHFJi+IxnEQZjxtn9GmjpVy6awXaWEotgsspkgbPSEFSnu0KiRDaQrWq2UOwhSALh5+hzNG399ehmK7oBKJeezYnD/lyXyb1WpMz/VYsn2WigGbtuCgneG6Xda7ZZZcn7LQoeTL0Kbqgoox4H3HPLbcntzl35/9gpgCyVYYY5mFOc+6PWZhjsGQOAw0pt/+m0hn/TbOFe3ZLqiIIx4dOoYUeNbtk4CeM5Spx1IxYK0as1GvMixH+GTp2gl7cfr8dyzZPr2yh9Xh5bEotguqsIY6GWpb8/bgFiklLBYDGOBGc5mNepWGiqGpcNawO+u4321yd/qIUTHgg9E79Oid9Vs5NxTbBWWAylZcrlcZ2z4AhXEYDGVRseZWaGPEGkNlHTFFjIU2eh7Mn1DZimCKo98kx6HYTmgeEpUzC7GKWWOoXUVlii/87PCQsDAOaxwAxkBIkSktpSl4e3CLkAKzOCGk3vP/T76ZYjuhGDu6dLg9d644999XDAZjf3cs9gtbFGcco3KIoeR62mCaAn1b6QzbCZiUkk4pHUMi0fmOX0/ukUg0tmatWqZfNuc+uONKgI8JkwLJOEwKOOswZhH286+e9mzfIqVEjIGQIpvzLW5PPuNRu8Wt5gq1rWiKGi5IbAYoreG3q41Wn5PQp/UNUkqE6PHB06bIo/Ypvzr4jE8md2lsje/7s15EOUcU29dIKdGFjlmY0ybPNEZiSvxy/1MAGtfDmZK0EKdKJAfF9jVCDEzCjM1um/vTTSZhynq1wp+tvMdyOeK9pbcZlqMLcwgpL0+xfY1oHJPo+eTgLj/d+QW1rXh/XPHXG3+ONZaB7dG4ArfAJwdiOhykZYw5PDtiDs9eyukotm/RRc+zbo++62GAJdvgjCOacuH3avdnm5iYWC3GdNHTWs/INtSlRo2chmL7GjYFTAr0XMXleg2LYa1cplc1WCxgWOCd2pHE7eld/qP7iL5ruNVcZdCMz3qhzi3F9jWcdQzLPreaKzjjOAhTrLGHF4EXvzIABq5PlwKfTh8wLobcbK5Qu8Xem79Kiu1rGGPo2YrL1Tor1SoJzzy0Fya0LibAcqlaIQ3foO8ahkVDCB22KM968c4ljSD5BiklfAyH31c4vAzQRc9avU7PFi8MZzqJkKCNHW2cA4cXi3upIrmC0tpT/97vUkiJuZ8zDVO66HHG0nM9ClvTFNpGn4Y+tW9gjAGT2PG73Jk+JJHYnG/xlys/olePOO2I9xQDz+a73Jnde74HXbEjNvqXXpupB5wx9FxJZV9cRZIGHZ+aYjsGHwNb7Q73ZpvUriIlz/Nz4aeS8KHlSbvNVrfLWjlm1O9TmtfrhhVrnQYaf4cU27ewWJZcn+vNJXb9AVd6axQvuXU3BnpFxVo5ZhJmDIs+K8XShRnQfFEptm9hjKFyFdd6l7lWb7Dj96ls+ZJ7IENpS9brFS731lkuR0dzfMgi0wmSY4gJ5iFgk6cu67NeHDmnFJtIJvqSIJKJYhPJRLGJZKKzkafUxgTRU1iL/ZoJc0S+SLGdgg8dj9sdCmNIKVLbiqVyiFN08g0U2wl1MTEJMz6b3udZt4c1hhu9y9Suom+bs16811qIni+e/A7EoynPL8blFMV2Qj545rHj7uwRH+7+iqViSN/1uJEun/WiZZGAEBPFKUZLhxCYx45ZnONTwBhDYUsSUNqK4kt3VMQY6FIgEAGwHD7O6mRHEAkfAi2HkzPNwpzG1vRclX0c6sLElji6jT9FunT4wZbm8JnQL3Mrf0qJkAI+BQB86kgk9vyE3e4Ag2Eeu+/iLbyWUkr4FOhSh4+B0pa0MVEfPcftJJ+vtZYuem5P77E532KpHHClXmcWW8bFmNGXBgyEGNjp9njSPaNLgdVixOVq9USxxZQ48BPuzh+TiGzOt3mrucb15jJl5nvzFia2ECMHvsWHKQdphk+etWLMsBrgTjmWMaVEG1p2uj2ehX1Sgi55hkWf5XLEH49/H4DG1gs7rrGLHdvtLg/bp+x0+wyL/vPP81q1xko9prDHW42sLTHG8unkPj/b/SUD1+PtwS3+YPQ9+rYmpvortxft+QM+2v+UPX/AD4dvcaleO9HyhxTYj1M+3P2YHb/PTrfPwDVcatYpyXtf3uLEljy7fpv7s8dMwox5bPnB6C36qTl1bDFF9v2ET6cP+PX0HrPQstlu8SdLP+BavcGPx39ElzyFdfTMYt5Q2SbP/flj/nPnI34zfcgkzGhcj8I4/mrtR3xQ/oDhMWNrYySkxHq9zJV6jXuzTf537xPebK7RNzXzGGm+sLeJJPbDhEmY0saOSWwJJ7haFVPEe08CnnQ7/OvT/+J6s0GXPDFFEinrBEYLE1uBw3j4+d5t/vnJv/G3l/6CkOJLDe511jEo+4zLIfP9lv/e/RWfTR+y2x3wvcEN1t2Y3xtco7gAN1N2yXNwtNLfmTzgRnOZp93O88Pr47Cpw5J4b/R93mquc2/2mG2/e/iwxZhoqhdDmqaW/TDl4OgG1pA6ZvGAPsebB8UaS1VWpJCYh5bH3TaTMOX+dJO3mxv0TEXh8v3dLcxa4glspz0ezp9wrbfBZ9OHPJo95XK9RmVPt9fxMbHbzdmcb/G02yGReDB/QkyRxtU8W9rnqvEUi/MxfkWdSup0+HjfeWx5NNt6/md7fkI4QWxVUbNy9KjgrhuxUazT2YSPU6z76h6mbyqu1RvcPrjLrn+KMxWNG534PTgs7y29zf/s3WbfTxiXI0bVMGtosCCx+ZR40u5ze3KXrXaXh/MnGMyJVoTfxVnDsKwZFQOetjv8y9OfcqN3hau9dTaq5VNHfJ60xpNcYqkYMnB9fNrkSbfD9eYSN3qXqO3JnrP9+WFbWZSURXl0a1Hv6DGML5qmFp8C7w7f4PvpJqvlGJs8cPzXNFgGxTIb1Qo/ufl3pJS43lwiRE8IHqc928k4Y0h4Hs+3uT/bZLPd5u3BTVaqMcVLXGg2gI+ePT+htAXvj9/lVnOVD8bvsFIusVYsUbLYF7ILW3G1usJw3Odmc7ih+Wz6EICNeoXymN/XvuzziZO++N8vGxR9LvdK1spVDIHSFlQnjMMaw7AoebN37fkzwAvjqF2dfeTPQsSWYmDmp2x3eyQSb/Wvc7O5TOPq37nFPK4YA6TIld4af7PxY7rkaUPLu4M3qGzJqBwc+0zceVUax7Do0TOWQdljXAyZhCld8oyLESEEoomv5GxsYRzDwpFcxeczM5/m2pgzhqVq+ML3d2ts9pnSFmJNSSRIUFpHbSs+GL/LW/2bjOznE6qejjGG2lZcKleOru8U7LX7rFZjnLVYs/jPJrMGSmcxpqKJjlu9AoOhKA6vtxW2eKVn9KzhO5l5+nUYv7ogsVlKV3O13oAxvDt8k5vNZUbl4KW2uMZYKlfhjiZnda6gNiXOuQs1570xFmctlbHU9nA26MIVlOZwJMnF+SRezkLcqe1j5Gm7w73ZQypTULuKlXKFlWqIW9CLzXL+LERsMQbmoaUjUJuSaWrp2QG1e5lvbCLfrYWITeQ80DGWSCaKTSSThTgb+bmYIm03f/FntqJ2dqGfEConM5/PScTn19KddZTFyUbCnMZCxUaC1nvudo+e/2hcLbFul3Hm1X+Y8vrrfMvD7gmP2i2ssayWS6zVy4xPMATstBbuMNIbz8cHv+HvP/tHfr5/m2mY0YZE0HmgC29+tB74FPj44A4/2/2I7XaXKuYZ47pQe7ZIZJLmzFPL94e3qG3Fvp+wbKc0tgB39qMIzrOUEj54yqOHIbYxURjzWjxP7jgKC5jDG1iv9y7hU6B2Nd74PK+f5VUyscYyKPpsVCs8nm9zZ3ofSIzcgFFqKBZ80PCr5JPnwE/xwTPtWkbFgJBgqWyw5+RzdcaAMSxXyzS2R+JwoLU94Z0Lp7VwsQ2LPlfqdf7hwT+x1e3iU+SN/nWC0WHky/Axstsd8HD+hF/u3+FKb40/HL0DnL8ZxZbKAckdLncy+Z70unDf2QCcsYQUedbust3u0sY8hwmLLKTAVrfDh7v/x4d7H/PJwV3s0T/nTWEMpXOUzlFZ85VZvV7Z62Z5lYwSiTZ6rvU28NHTuBqf/EvfSHqRpQTT0PJw9uTo0NwcbtDinJQi6NG/x7JwsTnj2KiWebN/nb7r8Wb/OqUp6LR3O7VAYh4DB1+YD+STg3tsreyyyjLunHxnO2sLF5vFMHZD/nT8QyKJ5XKJwjoa1zvrRTu3iqO7nUfFAB8DdyYPsMayOd/ijf516vN3JHkmFi42YwxN1fBO9ebzn81DynZcvui61PHx/h2WquGJZtaSBYwtpcS8m7Ebp8/nnOjbmrLosYBvV86RBVz7DN4UPG632ep2GLqG9WqFwhU0i/h2M6lsxVq1zFIxZFyN+GD8zoln1rroFnDtS5A67kzuc2f6gI1qmZ6rWQ5Dggl6rNMp+eRJKfL++F0u1av4FCh0FvJEFjC2w9m2frF/m2fdPpMwZVj0WbJ9GleDzpydSs/WvNG/zqVqFaxhHltWyiVqp73bcS1cbMZAVVS82b/B5vzp4ZRlGIyeEPpSSluwWo1ZLkc6OjilhYsNDKWreH/pHe7OHlGaguVyRM81pHM42uF1Yow59UNKZCFjO9y7bdQrFLaib0tKW1K5msOnuOkSgJyNhZ7wZx4TJnoK5xb2+Wlyfix0bCKvE23uRTJRbCKZKDaRTBSbSCaKTSQTxSaSiWITyUSxiWSi2EQyUWwimSg2kUwUm0gmik0kE8UmkoliE8lEsYlkothEMlFsIpkoNpFMFJtIJopNJBPFJpKJYhPJRLGJZKLYRDJRbCKZKDaRTBSbSCaKTSQTxSaSiWITyUSxiWSi2EQyUWwimSg2kUwUm0gmik0kE8UmkoliE8lEsYlkothEMlFsIpkoNpFMFJtIJopNJBPFJpKJYhPJRLGJZKLYRDJRbCKZKDaRTBSbSCaKTSQTxSaSiWITyUSxiWSi2EQyUWwimSg2kUwUm0gmik0kE8UmkoliE8lEsYlkothEMlFsIpkoNpFMFJtIJopNJBPFJpKJYhPJRLGJZKLYRDJRbCKZKDaRTBSbSCaKTSQTxSaSiWITyUSxiWSi2EQyUWwimSg2kUwUm0gmik0kE8UmkoliE8lEsYlkothEMlFsIpkoNpFMFJtIJopNJJP/BwlsuLTflTjYAAAAAElFTkSuQmCC;imageBorder=#808080;strokeWidth=1;" parent="1" vertex="1">
          <mxGeometry x="263.69000000000005" y="537.63" width="104.51" height="99.74" as="geometry" />
        </mxCell>
        <mxCell id="h4pa_BGokdYU-xwUs7ra-50" style="edgeStyle=orthogonalEdgeStyle;rounded=0;orthogonalLoop=1;jettySize=auto;html=1;exitX=1;exitY=0.5;exitDx=0;exitDy=0;entryX=0.5;entryY=1;entryDx=0;entryDy=0;shadow=0;endArrow=openAsync;endFill=0;startSize=4;endSize=4;strokeColor=#a5a5a5;strokeWidth=2;" parent="1" source="h4pa_BGokdYU-xwUs7ra-2" target="h4pa_BGokdYU-xwUs7ra-31" edge="1">
          <mxGeometry relative="1" as="geometry" />
        </mxCell>
        <mxCell id="h4pa_BGokdYU-xwUs7ra-2" value="" style="shape=image;verticalLabelPosition=bottom;labelBackgroundColor=default;verticalAlign=top;aspect=fixed;imageAspect=0;image=data:image/png,iVBORw0KGgoAAAANSUhEUgAAAM4AAADNCAYAAADwi09qAAAWQUlEQVR4nO3d6Y8cR5rf8e8TkVdVV/VNUuRQc+wcmtkBdiHAMGDD//8Lez1e25i1x6NdUZqlxKPZd1dVZkbE4xfZTVIS+0r1oSw+H0CCVKxqZmXnLyMyTkkpKQIonbP/ltP/f//183z/Pdf9jL73unzvhQ+97zrHcpX3fOgzl73nO8d8zufOOxb9wGuX/r0XnJcP/czr/k7O+z6XHd9VPnuV3wkCqu/ed973O+/83vH1K6qq5/+xMeZD3H0fgDFDZMExpgcLjjE9WHCM6cGCY0wPFhxjerDgGNODBceYHiw4xvRgwTGmBwuOMT1YcIzpwYJjTA8WHGN6sOAY04MFx5geLDjG9GDBMaYHC44xPVhwjOkhu+8DMHcjqjIPyiKmt69tlB4vFy49Y85hwfkIxBRZhMibOfzb6wUb04qVDNZyj/f3fXTDZFW1j4ATh3eeNgk7i4w/7wTWRh7nrLTpy4JzgTopdXz3TxzoEnQigogj87A+duSpRdv23QKA5tqsqvYBCjRR2Z1FdgUWJ8qjsfBgPOyqjRdYK2HiMv51T1mpAitFhthzzrVZcC7QNIH/tavQCJNHwoORAMNMjkPJSEQVduaOSemw8qY/q6qdwwk4UbKFMvYwkoQf+KXmUNqkfH2Q2BhBmVlp05eVOOcISQmS8Y+fKHVKFF4JSXHahWpoVITkPNM88tnDnIgO/DZwv6zE+QABqswxqYQmQYHSBmURlKjp0s//FDmg8sJWkfjsgZBdvHWAuYQF5xJf7iv/45VjrxbQiAw0OFHhuFW+rT1f7Sf+upto430f1XBZcK5gvw0cBEdNTpJhNg6cqYPyzy9bMp0jVlnrzYJzBZ9tZqxXwz5V3sE4d6zn8GkV+M32iIiSLDu9DPtquCUKzENXJXs4gXF+yWZiAyB0v+zCO36xWfHsQGjrFgZa9bxvFpwPEKBwQkXgaAH/uhdpQ6Ag4HTYDwZB4Ztj4dtZJCQLTV8WnHN4JwQc8wAxOUJyRBwqwz5lMSmvj+YUTgZfit4n68e5QMCxVkW2K2WUnwZnqJebKilGmqQ45zlaKLV6Enb37MPO2QUKl9gaQd0m9maBWZMG+zAtQCagCEFO75feM/ynt/thwTmHAGMPmRP+3z48O0gcNYk40OSoONR5nIBqy0olOGsY6M2CcwHvMo7qyKgQvPfogE9XUqVOihNYz+GojRzNA21M1pvTw3CvhDsQYsvRvCUHCokIw21Ry5ywXnq2xo6WkswJs+iZxy5U5nosOBfI85LNacVBrcxjhg64LSWpUodIqlsE2Co8i9gNxTHXN9wr4ZaddYIq8F9+kZMJjMv7Pqr+vAiVf9cQUDJHGN3jEQ2blTgXUODbQ/jLjvJypjQDf5YW53BlTlL4v7sZhRNyWtq2JqbhVkPvgwXnHAJ4bdleUV4dB77eTxzPAk0baAfasgbA6cS1kOD5/oJFPOubGvB3ugcWnItoYq3ong+aQDcy2jmGWvA4gXEuPJx0N4aTkBNDInMeN/BR33fNgnOBPCvYKpX89NFAnJB5Rz7Y6cZC5mCUAwIJR6OOkBJqLWvXYsG5gHceL0pZgHPQBCVGHeTUaQBVpQ7K/hy2xt26agHpxt8N9DvdFwvOBdqkNEHJsm4+i8ZEjGmw66uBwmkjgPAuK9553MAHr941O1sXaGNEgRCgjvq2OjPU3HTrDsDaCF4cR8KQGznumQXnAk5bosKihsMmcRyFhMMN9BlHxZFcRtNGDheJWaO0oZtqYBG6HusAvYATR4OQaAHFiZK0Wwp3qOFJqhzOGl4fJ7xr+M2msD125F7Jh/rwdg+sxLlAnhdMR92aywIUkhj7NNgLTFAyJzxcq1grlK/3Iv9nJ3FYW3lzXRacC9RNjaoyHgvZUpTNSqENT6rIZ09Lggh/2w/szu1557osOBco85LUBGYnibF4Xp5k/HUfjtthdoE6cVRFyVolPKgyphn8+0Hg2V5kd5GGPSLijllwLiAijEcFn64qiyaAJKaVkA20qgbdd8oz4XebjqfrnpVMQRUvw/5ed20pKiC3aZQ7ahzzmJgtWkIQRIZ72kSEsij4dB02KkeKGW2IzOpAHDuygTZ63DUrcS4RFQ4Wwu5J5HAB81YG/zzgnKfMhQQs2sRJK5wEobXJOVdmwbnE/jzy+jDw4ihxHBxBZbALdnyfAIe18voEjhtb1fM6LDgXaJPyfL/lm8PIUdOVPk4EP/DajAC5E7bGXclzUCdmdURt8Y4rs+CcQ4EmKa+OI7NWKZyykncji/0SPEQ7ga0Vz+bYkTlIIaHRgnNVw33KvSMtBetVoPCJRxNhUg4/NMrZ2DtwzlGgeLuFXosF5wqKwrM29TycOiq3PMV0VGXedKOlYxrwKqX3wIJzCaWrrj1wjpzEeInGdB20kTdzJTSJvUVGk5bllnD7LDgXmIXETh04bBQ5UvYWbqkurs0iI3cNR0lo03LcDO7K8lwFt2CUOQQYZTDOIHPQqtIsYbvt6+OGV8fNUn6322DBuUAdlJO5UqLkp2dKdfjrwQgw8o5SahzKziyxW3saHfqG9HfHgnOB3AufP86JCM8PE2/miTZGJIb7PrQfzQk8Xs35ZOrZHjueTB0bpQ5+46y7YsG5gBdYGwm5FxahW+giIbAE8/ObpOzXjip3/Hy9689xXqxl7YqGfwXckrPtDEcu4R3kTvHS9Xv4gXd6KN2oiC/3Im2ET1eFR1OhyjzeDfu73RU7SxfInbw9QaXvVr9shl9Le+vZXuD5YST3sDESxrngbXT0lVhwLtGosLXiGBfCAjgKibqNpCUY1/X6OPJsP3LYehK2kud1WHAusVEov3/oWKuE5LtOw92TliYM+yE6aTdoNZwOvTHXYx2gl/Blziejlierntf7yv9cJPRxxnjkqPL7Prr+mpiYx676GdU2l7ouK3EuMcqEp+sVW6sZu4vIX3davtoLvJkNu6p21rl70iq7dWBhI6OvxYJziZF3rI4duYc3M+Vve4H92bBbCASgrb+zJGlqI2ng1c+7ZMG5AgHmNTStUidYDHxclwJkxWkrGswXStsqwx8TcXcsOFdUFjCpus7QZXgcUJG3XZ0vjhKv50KrdjlclZ2pK2pbWLSwCDDQZdV+YOS7ZX1fHCdezZT6J16StqH9yezj81G3qsUUiHq6P8z3KW9HCrdt4HgemDWJOipHNRzVd3ywt2BaeTIXmdXdQh33eRdtk5J4twB8Lopot3lxrV0fU1sHfC4458gECn9/HbZLGZyoeuk25CEpbRM4CUL9XhUlJDhevBuWMguJ+TzyxZvIcdP1ebQh0bQRGHB7NFDkDpFu/8/73q8gKhw3iZ2TxEmT2KiUT6aekODbk8DBHCYZzGMiaOLhCD6ZeEbF/XTcLk1wgiohKSkmFgEOmi4EmYOjWjlplNWqC8giJpqozOaRvYWyOO3PaCKECAeLrjqWEiCRl0fKV/uJk0aZlsLGSBnnP40qw48RU3obmJC6ErZN3Y5zd30nzwTmjfLFm8jOceS3245Hq55Wla/3Al+8iXz+xPNvu92f/2pdyH8mPM7921WHFN6ueZc5udXhqksTnN154uVJ5OgkcNIoJ8HRxK6j76iGeRtYGxUAJFEOFpFXR4lFHVFVFgGO2+5UJ4WT0PWqb1V004uTsl4JP1/3/Ga7YH1l2KUNQJ51IUkh8OIw8Jc3gZNWWckdm5VQnm5+KikR6KpFCRBNOBFEHE66C/a8XeoccqWtH0UEEcWRqHJhlLu3PzMm8NLt5TNvlW8OArnP+LtGeZgi3nuSwjwkvj3uHkC3R45x3jXm3EaAliY4X+1H/tvzhq/2Iosm8bM1TyaObw8CD1cdm2Vifx5xJB6tFrxoWpqg5M6RiVJ4ocq7rTAijpXY/RJz73i8JkyzxLR0PF7P+cPDnI3R8NtVtlczch8I9YJ/epY4aoVfb2U8nXh+u+V4tNpdHhIajtSTeyEkKDSSe0eZe0ov1FFpY+o23SKRZ9KtUe1hnDmKK5ReUZVJpvzjIw8IVabEpBQOfr/t+P1Wxn9/oeTesTnJ2J46JrkipyVmVGVnnvjT80iMkT8+9PxiMzvdx/Xmz93SBGfnWPnyVcuXB4n1kaCirFTw+yrn4SQDgUdAwYIG+NV2zt8/clRnt0MRHBFPoNECESip2ZyWrBaOFR+7gBWeovCDHkUsdBPZKi9MS2FSeRYR/uVl4Jv9wNOp46v9nKfr3cUbExy0NU3qPjvNHSsZTKtElcHuLJFpS/IlLi5YnxSMC8/P1hzlinCVIqdwAlVOWXYLwHvpaguSWh5Oi27XiJh4cZwYV8JaJYhz6HtNGl6g8DBrFjgZU3p3a4tHLk1wcmrmUQlJ2Jx4/uGTgj9sCJVL4BK+OKtarXzncyWxW6XfZ0BG1JImJkaZ4+zhv/IOJ8Ovmr1v5B1/fJAR/ljy9eOc5/uRZ3uRV7NEHSKZ69Ze25+3vD4RVpyy23YX9CRTtlc8q6PuwTwptOrYnga+3Xfsfznn86cjtsbXK5UL9/6WvlB6oVVhlDnehJytMtJMAj9f8/x607NWKo4IOLwIq6Xjjw8SMGF17G51rbilCU5DxSzMCKfD/SeV4/F6gZeudazKzjuL2Q/qwJq7j2Ie5N9tZDyaOA4eJ77cU/78MvBstyFEZTrOyL3wywclm+NuoYXfjYWm6Xbh3hx51rLuwm0ogW47+Bc0rK7kZF5ITYtG6VpoenDiKPMSpRtb9/mDhn9I4AvHqHSMMvd2axInMMkdbq27pMeZu9KzVV9LE5xqSxhXgh4pswVo6Nr5hW7J2uucw48hNNBdXJV3bJbKxjjx6bpwsshokxIUpjms+MhxyFFOZ4yftgGMfGJSOjKfs6gjkmfEuuXJWsHYC+t5ZGXkkRu47cvZsa6N3r0mwvdry05g5TSkt12TXprgiIezWb8pdXfIs3P3sQThuoTuuQARNirHtHCk1GVDAQ+nGwbLD3p5nHRTyUWENMrACbrieZg4fUZRROTG1tk+uwFe+r47+mUvTXDSQU2ZIiEqYUmGxNwlL4L38MOJoOddie9ef3tBO6G49HPLYWmCM3EOTvsMBtzgZW5BOB1J4oUb23FuaYLTdRjf98AR81Mzb7pOXZWuU7XKbiY8yxOcpMjpKpuqdAMGT+8y5uMUU+TLvZZvjpQy9zxZg08mjiyz4Lw1GeXgWpx0w0japDQpMRr4Gmimv5ASf9lL/O9vI+tl11ixPbaq2g+UTgkxsQiORZsIQT/wsGs+Gi4jxMD+SUOKyknjaWI3ru3HNvYtze3YyemIWBEO5pHD45Zoc+g/aoUTJpUgmeP5YeCLnYY3s0R7AzsyLE1wJpnwaC2nyoU6CsfRs1iivWzM9dVRWck8axkUrguLl24oz4+1NFfWdCysrsjbB786KQvrz/moVb4bW1cn4aQR2nBzba5L84wjCPOFcrYDhzVLG4CchtUi4LY8P9vMGd1QM+vSBCc1LSl2U4C74e9CuTTl6e3rxqd993bjkBup1tynB5OcPzxy7C1grXA31jm+NMGRzNOkwOkwNdoEN1gyL7U2Ka9mkRdH3S7UkzzxcFqwPu5GYwzZ6sjz958IdZMYZTCtbuZuujzBce7tKOiYlMNa2Z8nnkwC3i3N17xxs5B4tpd4dhD4YidwMEv8alP4j6XycDLs0ABMi24KtaZumkF+A52fsETByR1sjT2T0nHSJBYtzNqu1LGunPMdLhL/9W8N//yi5flhpHDC+jinTae7GAw8O4X/7uS4m7I0TwGZF9ZHjs2Ro8i61U6CgheLzXmCKseN8ueXLX/695bnB4nMdVMMKqe0P5HF/36KliY4QLdCStbtEF2nrqMru81pgAPXJGV/0e06fVIHVrLILzccv930bFR3v0TUkCxVcDwB915DtHI2atqcZ28OdYRYLxhLw6erwpM1x8qooLSbzrmWJjgOCOQkHKrdWlx1TNS278vVOEeWebLM4UQsNJdYmuBU3lG5Bk9kEZTdk8TuQWCxaO770H6y5O2/IK8qsnEJmRXRV7E0rWoAbqNiNI7kzgZ3XsXIO8abgi+Fdj5nfuhoF8u1DNZtWZoSB2A1QvHeDVO8x+V2IVzkMTAGUGXWwN4CFpetWG+WKzhOT7d+cEJIXS/4vLGL4Dx1VNzp9h5ZVeHykpisQeUqlio40K39JdItjhfT5dt9fMwyB+sjx6OJo5RIOh0hm97bG8h82FIFp3RQeoezFqEr8dLtSJB7gRRo20hQUBKahr1B8G1bquDkrpsF6qTbkqLIHcUNjU1aZrlTstORKSEkmiZax/ElBt+qpnTjrfKs68gTEVYLKHPHpPIUg/+Gt2/socwz5kk4aZRZKzYw9hKDPTvdqIBu78rnhwGcsHPcUnj47VbGpBK2V+yueRkvwrh0jMYle0fKQe2Iw70s7sxgz1BKylHT7cv5ap54fgBt0zCtcv7DpxXrI3g46apt5nyFE55uerYnnp1ZJHPdZk03sRLMMhtscGJS3hzW/NM3LV/PPYsF/Gqz4vGq8Nm2Z71ytKo2UPEKtvLEL9dg3no2R0pGS5vywc/+vE3DDY4Ke03Gn15G/uV1y++2PNsrytN1z6QQcifkQ59MckfWJgV/eCKsjBIPRo7NqYXmMoMNDnR9NfOmZec48euNbt7Nau5Pd1MzV7GIyvrI8Z8/Lfj8UTd5bfuaO6l9jAYbHO9hdcWxPsqZFi1tjCRV26ngmkov5KcbC6XTfZusenu5wQZHgNx3a6lVhXQrrZtr6zaX6oJitbOrG3SZrAp10/Xj1K2SbOqNuSODLXHOZL4b2OmcbShl7s6gS5wza1W3E9usDgSb8WnuwGCD022m2o3kFeCohoO5sghqw+LNrRtsVc2JsJI71kaOqDAPQq05TRKiqo0YMLdqsCWOk27q72YhTPPu+SYkW2zd3I3BBgdAUApqxj7hgOMQaVOy8QLm1g06ONCVNGdBWS88ZYqQbLEOc7sGHRzvhAdrI0aV8KhK5A40y1Fny96a2zXYxgE4bVnzwtPtghDh55uOcRZw3Z/c9+GZJTbo4HgHT6aO//Sk4CQoT0aJaZHjZNAFqRkAUR3uIC+lW+KoDUqbuu3aq7zbJ8eY2zTo4BhzX6xOY0wPFhxjerDgGNODBceYHiw4xvRgwTGmBwuOMT1YcIzpwYJjTA8WHGN6sOAY04MFx5genK0IY8z1uWiDo425NptWYEwP9oxjTA8WHGN6sOAY04MFx5geLDjG9GDBMaYHC44xPVhwjOnBgmNMDxYcY3qw4BjTgwXHmB4sOMb0YMExpgcLjjE9WHCM6cGCY0wPFhxjerDgGNODBceYHiw4xvRgwTGmBwuOMT1YcIzpwYJjTA8WHGN6sOAY04MFx5geLDjG9GDBMaYHC44xPVhwjOnBgmNMDxYcY3qw4BjTgwXHmB4sOMb0YMExpgcLjjE9WHCM6cGCY0wPFhxjerDgGNODBceYHiw4xvRgwTGmBwuOMT1YcIzpwYJjTA8WHGN6sOAY04MFx5geLDjG9JCFEN7+j6qiKE7ce68lQBCRG/kLkybkAz9PVQFF5IdZ/v4xXOe97//873+3m3YT3+0qx9v9PG7sd/Lhn//jj3eZv9v/B9dfNTc2FFEgAAAAAElFTkSuQmCC;strokeWidth=1;imageBorder=#808080;" parent="1" vertex="1">
          <mxGeometry x="220.47" y="704.47" width="105.5" height="104.99" as="geometry" />
        </mxCell>
        <mxCell id="h4pa_BGokdYU-xwUs7ra-53" style="edgeStyle=orthogonalEdgeStyle;rounded=0;orthogonalLoop=1;jettySize=auto;html=1;exitX=0.5;exitY=0;exitDx=0;exitDy=0;entryX=-0.005;entryY=0.349;entryDx=0;entryDy=0;entryPerimeter=0;shadow=0;endArrow=openAsync;endFill=0;startSize=4;endSize=4;strokeColor=#a5a5a5;strokeWidth=2;" parent="1" source="h4pa_BGokdYU-xwUs7ra-3" target="h4pa_BGokdYU-xwUs7ra-51" edge="1">
          <mxGeometry relative="1" as="geometry">
            <Array as="points">
              <mxPoint x="520.47" y="589.5" />
              <mxPoint x="520.47" y="732.5" />
            </Array>
          </mxGeometry>
        </mxCell>
        <mxCell id="h4pa_BGokdYU-xwUs7ra-60" style="edgeStyle=orthogonalEdgeStyle;rounded=0;orthogonalLoop=1;jettySize=auto;html=1;exitX=0.5;exitY=0;exitDx=0;exitDy=0;entryX=0;entryY=0.5;entryDx=0;entryDy=0;shadow=0;endArrow=openAsync;endFill=0;startSize=4;endSize=4;strokeColor=#a5a5a5;strokeWidth=2;" parent="1" source="h4pa_BGokdYU-xwUs7ra-3" target="h4pa_BGokdYU-xwUs7ra-59" edge="1">
          <mxGeometry relative="1" as="geometry" />
        </mxCell>
        <mxCell id="h4pa_BGokdYU-xwUs7ra-3" value="" style="shape=trapezoid;perimeter=trapezoidPerimeter;whiteSpace=wrap;html=1;fixedSize=1;strokeWidth=1;rotation=90;fillColor=#9ac5e6;strokeColor=#5794c1;" parent="1" vertex="1">
          <mxGeometry x="405.68000000000006" y="556.5" width="115" height="65" as="geometry" />
        </mxCell>
        <mxCell id="h4pa_BGokdYU-xwUs7ra-4" value="" style="rounded=0;whiteSpace=wrap;html=1;strokeWidth=1;fillColor=#9ac5e6;strokeColor=#5794c1;" parent="1" vertex="1">
          <mxGeometry x="437.68000000000006" y="547.5" width="10" height="80" as="geometry" />
        </mxCell>
        <mxCell id="h4pa_BGokdYU-xwUs7ra-5" value="" style="rounded=0;whiteSpace=wrap;html=1;strokeWidth=1;fillColor=#9ac5e6;strokeColor=#5794c1;" parent="1" vertex="1">
          <mxGeometry x="442.68000000000006" y="551" width="10" height="80" as="geometry" />
        </mxCell>
        <mxCell id="h4pa_BGokdYU-xwUs7ra-6" value="" style="ellipse;whiteSpace=wrap;html=1;strokeWidth=1;fillColor=#9ac5e6;strokeColor=#5794c1;" parent="1" vertex="1">
          <mxGeometry x="442.68000000000006" y="557.5" width="9" height="9" as="geometry" />
        </mxCell>
        <mxCell id="h4pa_BGokdYU-xwUs7ra-8" value="" style="ellipse;whiteSpace=wrap;html=1;strokeWidth=1;fillColor=#9ac5e6;strokeColor=#5794c1;" parent="1" vertex="1">
          <mxGeometry x="442.68000000000006" y="577.5" width="9" height="9" as="geometry" />
        </mxCell>
        <mxCell id="h4pa_BGokdYU-xwUs7ra-9" value="" style="ellipse;whiteSpace=wrap;html=1;strokeWidth=1;fillColor=#9ac5e6;strokeColor=#5794c1;" parent="1" vertex="1">
          <mxGeometry x="442.68000000000006" y="597.5" width="9" height="9" as="geometry" />
        </mxCell>
        <mxCell id="h4pa_BGokdYU-xwUs7ra-10" value="" style="ellipse;whiteSpace=wrap;html=1;strokeWidth=1;fillColor=#9ac5e6;strokeColor=#5794c1;" parent="1" vertex="1">
          <mxGeometry x="442.68000000000006" y="617.5" width="9" height="9" as="geometry" />
        </mxCell>
        <mxCell id="h4pa_BGokdYU-xwUs7ra-17" value="" style="rounded=0;whiteSpace=wrap;html=1;shadow=0;sketch=0;strokeWidth=1;fillColor=#9ac5e6;strokeColor=#5794c1;" parent="1" vertex="1">
          <mxGeometry x="459.68000000000006" y="554.5" width="7" height="70" as="geometry" />
        </mxCell>
        <mxCell id="h4pa_BGokdYU-xwUs7ra-18" value="" style="rounded=0;whiteSpace=wrap;html=1;shadow=0;sketch=0;strokeWidth=1;fillColor=#9ac5e6;strokeColor=#5794c1;" parent="1" vertex="1">
          <mxGeometry x="462.68000000000006" y="558.5" width="7" height="69" as="geometry" />
        </mxCell>
        <mxCell id="h4pa_BGokdYU-xwUs7ra-19" value="" style="ellipse;whiteSpace=wrap;html=1;aspect=fixed;shadow=0;sketch=0;strokeWidth=1;fillColor=#9ac5e6;strokeColor=#5794c1;" parent="1" vertex="1">
          <mxGeometry x="462.68000000000006" y="565" width="6" height="6" as="geometry" />
        </mxCell>
        <mxCell id="h4pa_BGokdYU-xwUs7ra-20" value="" style="ellipse;whiteSpace=wrap;html=1;aspect=fixed;shadow=0;sketch=0;strokeWidth=1;fillColor=#9ac5e6;strokeColor=#5794c1;" parent="1" vertex="1">
          <mxGeometry x="462.68000000000006" y="582" width="6" height="6" as="geometry" />
        </mxCell>
        <mxCell id="h4pa_BGokdYU-xwUs7ra-21" value="" style="ellipse;whiteSpace=wrap;html=1;aspect=fixed;shadow=0;sketch=0;strokeWidth=1;fillColor=#9ac5e6;strokeColor=#5794c1;" parent="1" vertex="1">
          <mxGeometry x="462.68000000000006" y="597" width="6" height="6" as="geometry" />
        </mxCell>
        <mxCell id="h4pa_BGokdYU-xwUs7ra-22" value="" style="ellipse;whiteSpace=wrap;html=1;aspect=fixed;shadow=0;sketch=0;strokeWidth=1;fillColor=#9ac5e6;strokeColor=#5794c1;" parent="1" vertex="1">
          <mxGeometry x="462.68000000000006" y="614" width="6" height="6" as="geometry" />
        </mxCell>
        <mxCell id="h4pa_BGokdYU-xwUs7ra-25" value="" style="rounded=0;whiteSpace=wrap;html=1;shadow=0;sketch=0;strokeWidth=1;fillColor=#9ac5e6;strokeColor=#5794c1;" parent="1" vertex="1">
          <mxGeometry x="480.68000000000006" y="562.5" width="4" height="59" as="geometry" />
        </mxCell>
        <mxCell id="h4pa_BGokdYU-xwUs7ra-26" value="" style="rounded=0;whiteSpace=wrap;html=1;shadow=0;sketch=0;strokeWidth=1;fillColor=#9ac5e6;strokeColor=#5794c1;" parent="1" vertex="1">
          <mxGeometry x="483.68000000000006" y="566.5" width="4" height="57" as="geometry" />
        </mxCell>
        <mxCell id="h4pa_BGokdYU-xwUs7ra-27" value="" style="ellipse;whiteSpace=wrap;html=1;aspect=fixed;shadow=0;sketch=0;strokeWidth=1;fillColor=#9ac5e6;strokeColor=#5794c1;" parent="1" vertex="1">
          <mxGeometry x="483.68000000000006" y="571" width="3" height="3" as="geometry" />
        </mxCell>
        <mxCell id="h4pa_BGokdYU-xwUs7ra-28" value="" style="ellipse;whiteSpace=wrap;html=1;aspect=fixed;shadow=0;sketch=0;strokeWidth=1;fillColor=#9ac5e6;strokeColor=#5794c1;" parent="1" vertex="1">
          <mxGeometry x="483.68000000000006" y="585" width="3" height="3" as="geometry" />
        </mxCell>
        <mxCell id="h4pa_BGokdYU-xwUs7ra-29" value="" style="ellipse;whiteSpace=wrap;html=1;aspect=fixed;shadow=0;sketch=0;strokeWidth=1;fillColor=#9ac5e6;strokeColor=#5794c1;" parent="1" vertex="1">
          <mxGeometry x="483.68000000000006" y="600" width="3" height="3" as="geometry" />
        </mxCell>
        <mxCell id="h4pa_BGokdYU-xwUs7ra-30" value="" style="ellipse;whiteSpace=wrap;html=1;aspect=fixed;shadow=0;sketch=0;strokeWidth=1;fillColor=#9ac5e6;strokeColor=#5794c1;" parent="1" vertex="1">
          <mxGeometry x="483.68000000000006" y="612" width="3" height="3" as="geometry" />
        </mxCell>
        <mxCell id="h4pa_BGokdYU-xwUs7ra-52" style="edgeStyle=orthogonalEdgeStyle;rounded=0;orthogonalLoop=1;jettySize=auto;html=1;exitX=0.5;exitY=0;exitDx=0;exitDy=0;entryX=0.006;entryY=0.654;entryDx=0;entryDy=0;shadow=0;endArrow=openAsync;endFill=0;startSize=4;endSize=4;strokeColor=#a5a5a5;strokeWidth=2;entryPerimeter=0;" parent="1" source="h4pa_BGokdYU-xwUs7ra-31" target="h4pa_BGokdYU-xwUs7ra-51" edge="1">
          <mxGeometry relative="1" as="geometry">
            <Array as="points">
              <mxPoint x="452" y="750" />
            </Array>
          </mxGeometry>
        </mxCell>
        <mxCell id="h4pa_BGokdYU-xwUs7ra-31" value="" style="shape=trapezoid;perimeter=trapezoidPerimeter;whiteSpace=wrap;html=1;fixedSize=1;strokeWidth=1;rotation=90;fillColor=#B4A7D4;strokeColor=#765FAC;" parent="1" vertex="1">
          <mxGeometry x="361.46000000000004" y="724.5" width="115" height="65" as="geometry" />
        </mxCell>
        <mxCell id="h4pa_BGokdYU-xwUs7ra-32" value="" style="rounded=0;whiteSpace=wrap;html=1;strokeWidth=1;fillColor=#B4A7D4;strokeColor=#765FAC;" parent="1" vertex="1">
          <mxGeometry x="393.46000000000004" y="715.5" width="10" height="80" as="geometry" />
        </mxCell>
        <mxCell id="h4pa_BGokdYU-xwUs7ra-33" value="" style="rounded=0;whiteSpace=wrap;html=1;strokeWidth=1;fillColor=#B4A7D4;strokeColor=#765FAC;" parent="1" vertex="1">
          <mxGeometry x="398.46000000000004" y="719" width="10" height="80" as="geometry" />
        </mxCell>
        <mxCell id="h4pa_BGokdYU-xwUs7ra-34" value="" style="ellipse;whiteSpace=wrap;html=1;strokeWidth=1;fillColor=#B4A7D4;strokeColor=#765FAC;" parent="1" vertex="1">
          <mxGeometry x="398.46000000000004" y="725.5" width="9" height="9" as="geometry" />
        </mxCell>
        <mxCell id="h4pa_BGokdYU-xwUs7ra-35" value="" style="ellipse;whiteSpace=wrap;html=1;strokeWidth=1;fillColor=#B4A7D4;strokeColor=#765FAC;" parent="1" vertex="1">
          <mxGeometry x="398.46000000000004" y="745.5" width="9" height="9" as="geometry" />
        </mxCell>
        <mxCell id="h4pa_BGokdYU-xwUs7ra-36" value="" style="ellipse;whiteSpace=wrap;html=1;strokeWidth=1;fillColor=#B4A7D4;strokeColor=#765FAC;" parent="1" vertex="1">
          <mxGeometry x="398.46000000000004" y="765.5" width="9" height="9" as="geometry" />
        </mxCell>
        <mxCell id="h4pa_BGokdYU-xwUs7ra-37" value="" style="ellipse;whiteSpace=wrap;html=1;strokeWidth=1;fillColor=#B4A7D4;strokeColor=#765FAC;" parent="1" vertex="1">
          <mxGeometry x="398.46000000000004" y="785.5" width="9" height="9" as="geometry" />
        </mxCell>
        <mxCell id="h4pa_BGokdYU-xwUs7ra-38" value="" style="rounded=0;whiteSpace=wrap;html=1;shadow=0;sketch=0;strokeWidth=1;fillColor=#B4A7D4;strokeColor=#765FAC;" parent="1" vertex="1">
          <mxGeometry x="415.46000000000004" y="722.5" width="7" height="70" as="geometry" />
        </mxCell>
        <mxCell id="h4pa_BGokdYU-xwUs7ra-39" value="" style="rounded=0;whiteSpace=wrap;html=1;shadow=0;sketch=0;strokeWidth=1;fillColor=#B4A7D4;strokeColor=#765FAC;" parent="1" vertex="1">
          <mxGeometry x="418.46000000000004" y="726.5" width="7" height="69" as="geometry" />
        </mxCell>
        <mxCell id="h4pa_BGokdYU-xwUs7ra-40" value="" style="ellipse;whiteSpace=wrap;html=1;aspect=fixed;shadow=0;sketch=0;strokeWidth=1;fillColor=#B4A7D4;strokeColor=#765FAC;" parent="1" vertex="1">
          <mxGeometry x="418.46000000000004" y="733" width="6" height="6" as="geometry" />
        </mxCell>
        <mxCell id="h4pa_BGokdYU-xwUs7ra-41" value="" style="ellipse;whiteSpace=wrap;html=1;aspect=fixed;shadow=0;sketch=0;strokeWidth=1;fillColor=#B4A7D4;strokeColor=#765FAC;" parent="1" vertex="1">
          <mxGeometry x="418.46000000000004" y="750" width="6" height="6" as="geometry" />
        </mxCell>
        <mxCell id="h4pa_BGokdYU-xwUs7ra-42" value="" style="ellipse;whiteSpace=wrap;html=1;aspect=fixed;shadow=0;sketch=0;strokeWidth=1;fillColor=#B4A7D4;strokeColor=#765FAC;" parent="1" vertex="1">
          <mxGeometry x="418.46000000000004" y="765" width="6" height="6" as="geometry" />
        </mxCell>
        <mxCell id="h4pa_BGokdYU-xwUs7ra-43" value="" style="ellipse;whiteSpace=wrap;html=1;aspect=fixed;shadow=0;sketch=0;strokeWidth=1;fillColor=#B4A7D4;strokeColor=#765FAC;" parent="1" vertex="1">
          <mxGeometry x="418.46000000000004" y="782" width="6" height="6" as="geometry" />
        </mxCell>
        <mxCell id="h4pa_BGokdYU-xwUs7ra-44" value="" style="rounded=0;whiteSpace=wrap;html=1;shadow=0;sketch=0;strokeWidth=1;fillColor=#B4A7D4;strokeColor=#765FAC;" parent="1" vertex="1">
          <mxGeometry x="436.46000000000004" y="730.5" width="4" height="59" as="geometry" />
        </mxCell>
        <mxCell id="h4pa_BGokdYU-xwUs7ra-45" value="" style="rounded=0;whiteSpace=wrap;html=1;shadow=0;sketch=0;strokeWidth=1;fillColor=#B4A7D4;strokeColor=#765FAC;" parent="1" vertex="1">
          <mxGeometry x="439.46000000000004" y="734.5" width="4" height="57" as="geometry" />
        </mxCell>
        <mxCell id="h4pa_BGokdYU-xwUs7ra-46" value="" style="ellipse;whiteSpace=wrap;html=1;aspect=fixed;shadow=0;sketch=0;strokeWidth=1;fillColor=#B4A7D4;strokeColor=#765FAC;" parent="1" vertex="1">
          <mxGeometry x="439.46000000000004" y="739" width="3" height="3" as="geometry" />
        </mxCell>
        <mxCell id="h4pa_BGokdYU-xwUs7ra-47" value="" style="ellipse;whiteSpace=wrap;html=1;aspect=fixed;shadow=0;sketch=0;strokeWidth=1;fillColor=#B4A7D4;strokeColor=#765FAC;" parent="1" vertex="1">
          <mxGeometry x="439.46000000000004" y="753" width="3" height="3" as="geometry" />
        </mxCell>
        <mxCell id="h4pa_BGokdYU-xwUs7ra-48" value="" style="ellipse;whiteSpace=wrap;html=1;aspect=fixed;shadow=0;sketch=0;strokeWidth=1;fillColor=#B4A7D4;strokeColor=#765FAC;" parent="1" vertex="1">
          <mxGeometry x="439.46000000000004" y="768" width="3" height="3" as="geometry" />
        </mxCell>
        <mxCell id="h4pa_BGokdYU-xwUs7ra-49" value="" style="ellipse;whiteSpace=wrap;html=1;aspect=fixed;shadow=0;sketch=0;strokeWidth=1;fillColor=#B4A7D4;strokeColor=#765FAC;" parent="1" vertex="1">
          <mxGeometry x="439.46000000000004" y="780" width="3" height="3" as="geometry" />
        </mxCell>
        <mxCell id="h4pa_BGokdYU-xwUs7ra-51" value="&lt;b style=&quot;font-size: 14px&quot;&gt;计算二者编码&lt;br&gt;对比损失&lt;/b&gt;" style="rounded=1;whiteSpace=wrap;html=1;shadow=0;sketch=0;strokeColor=#A5A5A5;strokeWidth=1;fillColor=#eeeeee;" parent="1" vertex="1">
          <mxGeometry x="590.73" y="711" width="127.5" height="60" as="geometry" />
        </mxCell>
        <mxCell id="h4pa_BGokdYU-xwUs7ra-59" value="" style="rounded=0;whiteSpace=wrap;html=1;shadow=0;sketch=0;strokeColor=#A5A5A5;strokeWidth=1;fillColor=#9AC5E6;gradientColor=none;" parent="1" vertex="1">
          <mxGeometry x="613.22" y="552.5" width="10" height="73" as="geometry" />
        </mxCell>
        <mxCell id="h4pa_BGokdYU-xwUs7ra-105" value="&lt;b&gt;&lt;font style=&quot;font-size: 14px&quot;&gt;激光雷达信号&lt;/font&gt;&lt;br&gt;&lt;/b&gt;" style="text;html=1;resizable=0;autosize=1;align=center;verticalAlign=middle;points=[];fillColor=none;strokeColor=none;rounded=0;" parent="1" vertex="1">
          <mxGeometry x="223.22000000000003" y="810" width="100" height="20" as="geometry" />
        </mxCell>
        <mxCell id="h4pa_BGokdYU-xwUs7ra-106" value="&lt;b&gt;&lt;font style=&quot;font-size: 14px&quot;&gt;trainable encoder&amp;nbsp;&lt;/font&gt;&lt;/b&gt;" style="text;html=1;resizable=0;autosize=1;align=center;verticalAlign=middle;points=[];fillColor=none;strokeColor=none;rounded=0;" parent="1" vertex="1">
          <mxGeometry x="396.18000000000006" y="510" width="140" height="20" as="geometry" />
        </mxCell>
        <mxCell id="h4pa_BGokdYU-xwUs7ra-109" value="&lt;b&gt;&lt;font style=&quot;font-size: 14px&quot;&gt;编码 p&lt;/font&gt;&lt;/b&gt;" style="text;html=1;resizable=0;autosize=1;align=center;verticalAlign=middle;points=[];fillColor=none;strokeColor=none;rounded=0;" parent="1" vertex="1">
          <mxGeometry x="548.22" y="556.7" width="60" height="20" as="geometry" />
        </mxCell>
        <mxCell id="h4pa_BGokdYU-xwUs7ra-110" value="&lt;b&gt;&lt;font style=&quot;font-size: 14px&quot;&gt;编码 q&lt;/font&gt;&lt;/b&gt;" style="text;html=1;resizable=0;autosize=1;align=center;verticalAlign=middle;points=[];fillColor=none;strokeColor=none;rounded=0;" parent="1" vertex="1">
          <mxGeometry x="490.00000000000006" y="753" width="60" height="20" as="geometry" />
        </mxCell>
        <mxCell id="h4pa_BGokdYU-xwUs7ra-111" value="&lt;b&gt;&lt;font style=&quot;font-size: 14px&quot;&gt;fixed encoder&amp;nbsp;&lt;/font&gt;&lt;/b&gt;" style="text;html=1;resizable=0;autosize=1;align=center;verticalAlign=middle;points=[];fillColor=none;strokeColor=none;rounded=0;" parent="1" vertex="1">
          <mxGeometry x="360.46000000000004" y="820" width="110" height="20" as="geometry" />
        </mxCell>
      </root>
    </mxGraphModel>
  </diagram>
</mxfile>
